<?xml version="1.0" encoding="utf-8"?>
<!-- Generator: Adobe Illustrator 16.0.0, SVG Export Plug-In . SVG Version: 6.00 Build 0)  -->
<!DOCTYPE svg PUBLIC "-//W3C//DTD SVG 1.1//EN" "http://www.w3.org/Graphics/SVG/1.1/DTD/svg11.dtd">
<svg version="1.1" id="Layer_1" xmlns="http://www.w3.org/2000/svg" xmlns:xlink="http://www.w3.org/1999/xlink" x="0px" y="0px"
	 width="223.597px" height="22px" viewBox="0 0 223.597 22" enable-background="new 0 0 223.597 22" xml:space="preserve">
<g>
	<g>
		<path fill="#FFFFFF" d="M9.299,14.842C9.445,15.167,9.585,15.5,9.72,15.84c0.135-0.348,0.277-0.687,0.428-1.016
			c0.149-0.328,0.304-0.646,0.462-0.956l4.438-8.744c0.079-0.15,0.161-0.268,0.244-0.351s0.176-0.144,0.278-0.184
			c0.103-0.04,0.22-0.06,0.351-0.06c0.13,0,0.282,0,0.457,0h3.062V21.81h-3.537v-9.944c0-0.483,0.024-1.005,0.071-1.567l-4.58,8.89
			c-0.143,0.276-0.335,0.486-0.576,0.629c-0.241,0.142-0.516,0.213-0.824,0.213H9.448c-0.309,0-0.584-0.071-0.825-0.213
			c-0.241-0.143-0.434-0.353-0.575-0.629l-4.605-8.901c0.032,0.277,0.056,0.552,0.071,0.825c0.017,0.273,0.024,0.524,0.024,0.754
			v9.944H0V4.53h3.062c0.174,0,0.326,0,0.456,0c0.131,0,0.248,0.02,0.351,0.06c0.103,0.04,0.195,0.101,0.279,0.184
			c0.083,0.083,0.164,0.2,0.243,0.351l4.45,8.78C9,14.205,9.153,14.518,9.299,14.842z"/>
		<path fill="#FFFFFF" d="M29.48,18.641c0.537,0,1.019-0.089,1.441-0.267c0.423-0.179,0.781-0.433,1.074-0.766
			c0.293-0.332,0.517-0.737,0.671-1.216c0.153-0.479,0.23-1.023,0.23-1.633V4.519h4.012V14.76c0,1.061-0.172,2.033-0.517,2.92
			c-0.344,0.887-0.836,1.649-1.478,2.291c-0.641,0.641-1.42,1.139-2.338,1.494C31.658,21.821,30.626,22,29.48,22
			c-1.155,0-2.192-0.179-3.109-0.535c-0.918-0.355-1.697-0.854-2.338-1.494c-0.642-0.642-1.132-1.404-1.472-2.291
			c-0.341-0.887-0.511-1.859-0.511-2.92V4.519h4.012v10.229c0,0.609,0.077,1.153,0.231,1.633c0.154,0.479,0.377,0.885,0.67,1.222
			s0.651,0.593,1.074,0.771C28.46,18.552,28.942,18.641,29.48,18.641z"/>
		<path fill="#FFFFFF" d="M42.071,4.542c0.119,0.016,0.226,0.045,0.32,0.089s0.186,0.105,0.273,0.184
			c0.087,0.079,0.186,0.186,0.296,0.32l8.213,10.384c-0.032-0.332-0.056-0.654-0.071-0.967s-0.023-0.607-0.023-0.885V4.519h3.536
			V21.81h-2.089c-0.309,0-0.569-0.048-0.783-0.143s-0.419-0.269-0.617-0.522l-8.152-10.301c0.023,0.301,0.043,0.596,0.059,0.885
			c0.017,0.289,0.024,0.56,0.024,0.812v9.269h-3.537V4.519h2.112C41.806,4.519,41.952,4.526,42.071,4.542z"/>
		<path fill="#FFFFFF" d="M73.152,13.158c0,1.25-0.216,2.403-0.647,3.459c-0.431,1.057-1.038,1.971-1.821,2.742
			s-1.727,1.372-2.83,1.803c-1.104,0.432-2.328,0.647-3.673,0.647h-6.718V4.519h6.718c1.345,0,2.569,0.218,3.673,0.653
			s2.047,1.037,2.83,1.804c0.783,0.768,1.391,1.679,1.821,2.735C72.936,10.767,73.152,11.916,73.152,13.158z M69.045,13.158
			c0-0.854-0.111-1.626-0.332-2.314c-0.222-0.688-0.54-1.271-0.956-1.75c-0.415-0.479-0.924-0.846-1.524-1.104
			c-0.602-0.257-1.286-0.386-2.053-0.386h-2.683v11.121h2.683c0.767,0,1.451-0.129,2.053-0.387c0.601-0.256,1.109-0.625,1.524-1.104
			c0.416-0.479,0.734-1.062,0.956-1.75C68.934,14.796,69.045,14.021,69.045,13.158z"/>
		<path fill="#FFFFFF" d="M92.139,13.158c0,1.25-0.215,2.413-0.646,3.488c-0.432,1.076-1.038,2.012-1.821,2.808
			c-0.783,0.795-1.727,1.418-2.831,1.869C85.737,21.773,84.512,22,83.167,22s-2.571-0.227-3.679-0.677
			c-1.107-0.451-2.055-1.074-2.843-1.869c-0.787-0.796-1.396-1.731-1.827-2.808c-0.432-1.075-0.646-2.238-0.646-3.488
			s0.215-2.413,0.646-3.489c0.431-1.076,1.04-2.009,1.827-2.801c0.788-0.791,1.735-1.412,2.843-1.863
			c1.107-0.451,2.334-0.677,3.679-0.677s2.569,0.228,3.673,0.683c1.104,0.455,2.048,1.078,2.831,1.869s1.39,1.725,1.821,2.801
			C91.924,10.757,92.139,11.916,92.139,13.158z M88.033,13.158c0-0.854-0.111-1.624-0.333-2.308
			c-0.222-0.685-0.54-1.264-0.955-1.739s-0.924-0.838-1.524-1.092c-0.602-0.253-1.286-0.38-2.054-0.38
			c-0.775,0-1.466,0.127-2.07,0.38c-0.605,0.253-1.116,0.617-1.531,1.092s-0.734,1.054-0.955,1.739
			c-0.222,0.684-0.333,1.454-0.333,2.308c0,0.862,0.111,1.636,0.333,2.32c0.221,0.684,0.54,1.264,0.955,1.738
			s0.926,0.837,1.531,1.086c0.604,0.249,1.295,0.374,2.07,0.374c0.768,0,1.452-0.125,2.054-0.374
			c0.601-0.249,1.109-0.611,1.524-1.086s0.733-1.055,0.955-1.738C87.922,14.794,88.033,14.021,88.033,13.158z"/>
	</g>
	<path opacity="0.8" fill="#FFFFFF" d="M107.828,21.629h-0.938c-0.11,0-0.201-0.028-0.273-0.088
		c-0.069-0.059-0.125-0.137-0.165-0.232l-1.979-4.873h-8.241l-1.969,4.873c-0.031,0.088-0.088,0.162-0.165,0.227
		c-0.08,0.063-0.176,0.094-0.287,0.094h-0.924l6.865-16.778h1.21L107.828,21.629z M96.599,15.532h7.518l-3.426-8.476
		c-0.056-0.135-0.112-0.287-0.168-0.457c-0.055-0.171-0.109-0.351-0.167-0.539c-0.054,0.188-0.109,0.368-0.163,0.539
		c-0.056,0.17-0.112,0.325-0.167,0.467L96.599,15.532z M125.093,13.235c0,1.296-0.193,2.474-0.58,3.525
		c-0.389,1.057-0.934,1.957-1.637,2.706c-0.703,0.748-1.548,1.324-2.525,1.729c-0.981,0.407-2.069,0.614-3.263,0.614
		c-1.177,0-2.257-0.207-3.236-0.614c-0.98-0.404-1.822-0.98-2.525-1.729c-0.703-0.749-1.252-1.649-1.644-2.706
		c-0.391-1.052-0.586-2.229-0.586-3.525c0-1.29,0.195-2.459,0.586-3.518c0.392-1.056,0.94-1.957,1.644-2.703
		c0.703-0.749,1.545-1.326,2.525-1.739c0.979-0.411,2.06-0.614,3.236-0.614c1.193,0,2.281,0.204,3.263,0.609
		c0.978,0.408,1.822,0.988,2.525,1.737c0.703,0.753,1.248,1.654,1.637,2.71C124.9,10.776,125.093,11.945,125.093,13.235z
		 M123.837,13.235c0-1.172-0.163-2.222-0.487-3.153c-0.324-0.935-0.78-1.725-1.371-2.372c-0.587-0.648-1.298-1.146-2.128-1.49
		c-0.829-0.343-1.751-0.516-2.763-0.516c-0.995,0-1.905,0.173-2.733,0.516c-0.825,0.344-1.535,0.842-2.134,1.49
		c-0.597,0.647-1.059,1.438-1.387,2.372c-0.328,0.931-0.492,1.981-0.492,3.153c0,1.177,0.164,2.229,0.492,3.159
		s0.79,1.717,1.387,2.364c0.599,0.65,1.309,1.144,2.134,1.483c0.828,0.341,1.738,0.512,2.733,0.512c1.012,0,1.934-0.171,2.763-0.512
		c0.83-0.34,1.541-0.833,2.128-1.483c0.591-0.647,1.047-1.435,1.371-2.364S123.837,14.412,123.837,13.235z"/>
	<path fill="#FFFFFF" d="M137.266,14.668c0.145,0.324,0.286,0.658,0.421,0.999c0.133-0.352,0.276-0.687,0.426-1.017
		c0.149-0.328,0.305-0.648,0.464-0.955l4.435-8.737c0.079-0.153,0.159-0.268,0.242-0.351s0.176-0.145,0.279-0.184
		c0.102-0.04,0.218-0.058,0.35-0.058c0.131,0,0.282,0,0.457,0h3.058v17.264h-3.533v-9.938c0-0.479,0.025-1.003,0.071-1.564
		l-4.578,8.882c-0.142,0.278-0.333,0.485-0.574,0.627c-0.241,0.145-0.515,0.214-0.824,0.214h-0.545
		c-0.308,0-0.583-0.069-0.823-0.214c-0.243-0.142-0.435-0.349-0.576-0.627l-4.602-8.895c0.032,0.279,0.055,0.552,0.072,0.824
		c0.016,0.273,0.023,0.523,0.023,0.752v9.938h-3.533V4.365h3.06c0.173,0,0.327,0,0.456,0c0.13,0,0.246,0.018,0.349,0.058
		c0.103,0.04,0.196,0.101,0.279,0.184c0.084,0.083,0.164,0.198,0.244,0.351l4.445,8.773
		C136.967,14.033,137.119,14.343,137.266,14.668z M154.631,21.629h-4.032V4.352l4.032,0V21.629z M160.384,4.378
		c0.118,0.015,0.224,0.043,0.319,0.087c0.094,0.044,0.186,0.104,0.273,0.184c0.085,0.078,0.187,0.186,0.296,0.32l8.206,10.375
		c-0.034-0.33-0.057-0.652-0.072-0.965s-0.022-0.606-0.022-0.883V4.351h3.532v17.278h-2.085c-0.31,0-0.57-0.047-0.783-0.139
		c-0.213-0.1-0.421-0.271-0.617-0.525l-8.147-10.293c0.023,0.3,0.044,0.597,0.06,0.886c0.016,0.286,0.023,0.558,0.023,0.81v9.262
		h-3.533V4.351h2.11C160.117,4.351,160.265,4.36,160.384,4.378z M182.948,18.465c0.538,0,1.02-0.09,1.44-0.269
		c0.424-0.179,0.781-0.431,1.074-0.765c0.292-0.332,0.516-0.734,0.67-1.215c0.155-0.478,0.232-1.022,0.232-1.632V4.351h4.008v10.234
		c0,1.062-0.173,2.034-0.516,2.919c-0.344,0.883-0.838,1.646-1.477,2.287c-0.642,0.643-1.42,1.139-2.336,1.494
		c-0.918,0.357-1.948,0.535-3.097,0.535c-1.152,0-2.188-0.178-3.105-0.535c-0.918-0.355-1.698-0.852-2.335-1.494
		c-0.643-0.641-1.131-1.404-1.472-2.287c-0.341-0.885-0.511-1.857-0.511-2.919V4.351h4.008v10.224c0,0.608,0.078,1.151,0.232,1.631
		c0.155,0.478,0.377,0.886,0.669,1.222c0.294,0.336,0.65,0.59,1.073,0.769S182.411,18.465,182.948,18.465z M205.528,4.351v3.178
		h-4.862v14.1h-4.007v-14.1h-4.862V4.351H205.528z M214.636,3.799c-4.939,0-8.957,4.019-8.957,8.958c0,4.94,4.018,8.961,8.957,8.961
		c4.943,0,8.961-4.021,8.961-8.961C223.597,7.818,219.579,3.799,214.636,3.799z M214.636,18.221c-3.012,0-5.461-2.449-5.461-5.463
		c0-3.012,2.449-5.465,5.461-5.465c3.014,0,5.463,2.454,5.463,5.465C220.099,15.771,217.65,18.221,214.636,18.221z M217.62,13.264
		h-2.936V9.658c0-0.437-0.35-0.785-0.783-0.785s-0.783,0.348-0.783,0.785v4.4c0,0.426,0.346,0.771,0.771,0.771h3.73
		c0.432,0,0.781-0.35,0.781-0.781C218.402,13.614,218.052,13.264,217.62,13.264z"/>
</g>
</svg>
